<svg height="512pt" viewBox="0 0 512 512" width="512pt" xmlns="http://www.w3.org/2000/svg"><path d="m144 0h224c79.527344 0 144 64.472656 144 144v224c0 79.527344-64.472656 144-144 144h-224c-79.527344 0-144-64.472656-144-144v-224c0-79.527344 64.472656-144 144-144zm0 0" fill="#a8918c"/><g fill="#fff"><path d="m256 400c-79.527344 0-144-64.472656-144-144s64.472656-144 144-144 144 64.472656 144 144c-.089844 79.492188-64.507812 143.910156-144 144zm0-256c-61.855469 0-112 50.144531-112 112s50.144531 112 112 112 112-50.144531 112-112c-.070312-61.828125-50.171875-111.929688-112-112zm0 0"/><path d="m384 96h32v32h-32zm0 0"/></g></svg>